<?xml version="1.0" standalone="no"?>
<!DOCTYPE svg PUBLIC "-//W3C//DTD SVG 20010904//EN"
 "http://www.w3.org/TR/2001/REC-SVG-20010904/DTD/svg10.dtd">
<svg version="1.0" xmlns="http://www.w3.org/2000/svg"
 width="270.000000pt" height="270.000000pt" viewBox="0 0 270.000000 270.000000"
 preserveAspectRatio="xMidYMid meet">
<metadata>
Created by potrace 1.14, written by Peter Selinger 2001-2017
</metadata>
<g transform="translate(0.000000,270.000000) scale(0.100000,-0.100000)"
fill="#000000" stroke="none">
<path d="M1395 2338 c-27 -4 -81 -10 -120 -13 -38 -3 -86 -8 -105 -11 -20 -3
-65 -7 -100 -9 -36 -2 -65 -5 -65 -5 0 -1 -24 -4 -53 -6 -53 -5 -137 -38 -325
-129 -53 -25 -100 -45 -105 -45 -9 0 -150 -138 -288 -281 -61 -63 -66 -75 -79
-167 -2 -18 -6 -41 -9 -50 -3 -9 -8 -34 -12 -56 -3 -21 -8 -48 -11 -60 -12
-52 -19 -106 -16 -127 2 -12 23 -45 46 -73 24 -28 74 -91 113 -141 78 -102 77
-100 139 -177 l46 -58 228 0 c246 0 235 2 297 -55 95 -86 161 -143 180 -156
14 -8 30 -22 37 -30 21 -25 131 -115 149 -122 11 -4 28 4 47 21 71 63 67 62
75 18 3 -16 9 -32 14 -35 5 -3 27 -20 48 -38 22 -17 89 -70 149 -118 61 -47
117 -92 125 -98 8 -7 30 -24 48 -39 32 -27 37 -28 153 -28 67 0 119 4 119 9 0
11 -147 292 -174 333 -10 15 -15 31 -13 35 3 5 32 26 64 48 32 22 60 42 63 46
3 3 30 22 60 42 30 20 62 44 71 52 9 8 21 15 27 15 6 0 17 9 25 20 8 11 16 18
19 15 3 -3 13 4 23 15 10 11 22 20 27 20 18 0 68 54 104 113 21 34 41 64 46
65 4 2 6 7 3 12 -3 4 2 13 10 20 8 7 15 17 15 22 0 5 17 35 38 66 62 92 70
114 61 163 -4 24 -26 116 -49 204 -23 88 -46 177 -51 198 -5 20 -13 55 -19 77
-5 22 -14 57 -19 78 -30 122 -29 122 -167 167 -44 15 -88 30 -99 35 -25 11
-135 50 -280 100 -60 21 -164 57 -230 81 -125 45 -183 52 -280 37z m225 -122
c25 -8 110 -38 190 -66 80 -28 195 -69 255 -90 61 -20 137 -48 170 -60 33 -12
70 -24 82 -27 22 -5 42 -50 58 -130 l7 -33 -244 0 c-134 0 -252 -3 -263 -6
-12 -3 -35 -34 -59 -80 -26 -47 -47 -76 -60 -80 -12 -2 -126 -3 -254 -2 l-234
3 -33 63 c-37 71 -35 81 24 152 l30 35 165 0 c118 0 169 -4 178 -13 15 -15 62
-16 89 -1 48 25 47 114 -1 142 -35 21 -59 21 -96 2 -23 -12 -70 -15 -215 -15
l-187 0 -33 -52 c-19 -28 -37 -56 -41 -62 -4 -6 -14 -1 -25 12 -18 22 -21 23
-305 24 -159 1 -288 4 -288 7 0 4 15 23 32 43 33 37 164 112 180 102 4 -3 8 0
8 5 0 6 9 11 20 11 11 0 20 5 20 10 0 6 6 10 14 10 7 0 37 13 67 29 30 15 68
31 84 35 37 8 339 39 505 53 41 3 77 7 79 9 2 1 11 -1 20 -6 9 -5 36 -16 61
-24z m-609 -426 c18 -28 46 -74 105 -175 32 -55 62 -103 67 -106 4 -3 148 -6
318 -6 l311 0 24 38 c13 21 24 43 24 49 0 5 5 10 11 10 5 0 7 5 4 10 -3 6 -2
10 2 10 5 0 13 10 18 23 10 22 11 22 251 24 l242 1 12 -46 c7 -26 18 -65 24
-87 7 -22 11 -46 9 -52 -7 -19 -326 -18 -342 0 -9 12 -31 14 -73 8 -4 -1 -18
-12 -31 -25 -21 -21 -24 -30 -17 -66 9 -48 7 -45 50 -63 29 -13 38 -13 69 1
27 11 77 16 196 17 202 2 203 2 162 -47 -13 -15 -32 -45 -41 -67 -11 -23 -27
-42 -40 -45 -35 -8 -529 -5 -546 4 -8 4 -28 34 -45 65 -16 32 -35 59 -41 62
-7 2 -153 5 -325 6 l-314 2 -30 47 c-16 27 -50 83 -74 125 -77 136 -35 123
-401 123 -174 0 -319 3 -323 6 -20 20 71 160 108 166 11 2 156 3 323 3 257 0
304 -2 313 -15z m-169 -289 c4 0 39 -56 79 -123 99 -170 100 -171 140 -176 46
-5 53 -12 102 -106 57 -110 64 -116 139 -116 34 0 84 -7 112 -16 65 -20 101
-8 121 40 17 40 9 70 -25 101 -26 23 -91 25 -113 3 -15 -14 -56 -16 -94 -4
-10 3 -29 26 -41 51 l-22 45 209 0 c234 0 216 5 266 -78 23 -39 37 -52 60 -56
17 -2 136 -5 265 -5 129 0 241 0 249 0 26 -2 -28 -48 -173 -148 -78 -54 -147
-103 -154 -110 -8 -7 -23 -18 -34 -24 -11 -6 -40 -25 -63 -43 -23 -17 -52 -38
-64 -46 -11 -8 -21 -19 -21 -24 0 -6 32 -72 70 -148 39 -76 67 -138 63 -138
-5 0 -46 30 -93 68 -47 37 -95 74 -106 82 -12 8 -47 34 -78 58 l-56 43 0 124
c0 69 -3 125 -6 125 -3 0 -11 -6 -18 -12 -8 -7 -24 -20 -36 -28 -12 -8 -29
-21 -36 -28 -7 -7 -40 -33 -71 -57 -57 -43 -58 -43 -87 -27 -15 10 -65 50
-110 90 -183 164 -212 189 -240 208 -27 17 -51 19 -245 19 -119 1 -222 4 -229
8 -19 13 -14 37 16 81 42 63 49 69 85 63 18 -3 51 -8 74 -12 34 -6 45 -4 63
13 12 11 19 25 15 31 -3 6 -1 11 5 11 18 0 -1 53 -31 85 -28 29 -30 29 -71 16
-24 -7 -69 -15 -100 -18 l-57 -5 -52 -69 c-29 -39 -55 -67 -59 -62 -4 4 -29
37 -55 73 -27 36 -61 80 -77 98 -22 26 -28 42 -28 82 0 32 5 52 14 57 11 6
565 10 598 4z"/>
</g>
</svg>
